<svg xmlns="http://www.w3.org/2000/svg" viewBox="0 0 191.07 196.45"><defs><style>.\39 3607e52-73b9-4bc0-9519-f2bad1a9f084{fill:#fff;}</style></defs><title>Asset 2</title><g id="eb30b8b5-308f-457c-9deb-46991199a99b" data-name="Layer 2"><g id="05395da9-51ff-42ac-b196-bbc5686522fe" data-name="Layer 1"><polygon class="93607e52-73b9-4bc0-9519-f2bad1a9f084" points="114.68 79.86 85.97 83.43 85.79 81.43 114.68 79.86"/><polygon class="93607e52-73b9-4bc0-9519-f2bad1a9f084" points="98.85 71.65 88.34 90.8 87.56 90.4 97.07 70.73 98.85 71.65"/><ellipse class="93607e52-73b9-4bc0-9519-f2bad1a9f084" cx="97.96" cy="71.19" rx="1.65" ry="3.44" transform="matrix(0.32, -0.95, 0.95, 0.32, -0.92, 141.11)"/><polygon class="93607e52-73b9-4bc0-9519-f2bad1a9f084" points="23.92 57.58 44.02 49.04 44.38 49.84 24.75 59.41 23.92 57.58"/><ellipse class="93607e52-73b9-4bc0-9519-f2bad1a9f084" cx="24.34" cy="58.5" rx="1.65" ry="3.44" transform="translate(-27.98 22.76) rotate(-33.07)"/><polygon class="93607e52-73b9-4bc0-9519-f2bad1a9f084" points="49.95 25.8 30.68 36.06 30.25 35.3 48.97 24.05 49.95 25.8"/><ellipse class="93607e52-73b9-4bc0-9519-f2bad1a9f084" cx="49.46" cy="24.93" rx="1.65" ry="3.44" transform="translate(-4.85 35.8) rotate(-38.07)"/><polygon class="93607e52-73b9-4bc0-9519-f2bad1a9f084" points="77.22 54.66 55.39 53.93 55.4 53.05 77.23 52.65 77.22 54.66"/><ellipse class="93607e52-73b9-4bc0-9519-f2bad1a9f084" cx="77.22" cy="53.65" rx="1.65" ry="3.44" transform="translate(-6.82 11.48) rotate(-8.14)"/><polygon class="93607e52-73b9-4bc0-9519-f2bad1a9f084" points="50.88 86.56 63.4 68.67 64.13 69.15 52.55 87.67 50.88 86.56"/><ellipse class="93607e52-73b9-4bc0-9519-f2bad1a9f084" cx="51.72" cy="87.11" rx="1.65" ry="3.44" transform="translate(-49.08 97.29) rotate(-65.07)"/><polygon class="93607e52-73b9-4bc0-9519-f2bad1a9f084" points="50.36 40.18 57.09 31.59 57.3 31.73 52.04 41.28 50.36 40.18"/><polygon class="93607e52-73b9-4bc0-9519-f2bad1a9f084" points="37.6 54.27 8.68 53.39 8.68 53.14 37.6 52.26 37.6 54.27"/><polygon class="93607e52-73b9-4bc0-9519-f2bad1a9f084" points="27.12 83.03 41.38 58.58 42.14 59.01 28.87 84 27.12 83.03"/><ellipse class="93607e52-73b9-4bc0-9519-f2bad1a9f084" cx="27.99" cy="83.51" rx="1.65" ry="3.44" transform="translate(-59.74 75.68) rotate(-66.37)"/><polygon class="93607e52-73b9-4bc0-9519-f2bad1a9f084" points="72.37 88.29 40.23 100.58 40.14 100.35 71.6 86.44 72.37 88.29"/><polygon class="93607e52-73b9-4bc0-9519-f2bad1a9f084" points="85.69 95.7 73.04 114.12 72.82 113.99 84 94.63 85.69 95.7"/><polygon class="93607e52-73b9-4bc0-9519-f2bad1a9f084" points="64.48 79.32 54.42 46.42 54.66 46.34 66.39 78.68 64.48 79.32"/><polygon class="93607e52-73b9-4bc0-9519-f2bad1a9f084" points="25.05 29.71 17.51 0.07 17.75 0 26.98 29.16 25.05 29.71"/><polygon class="93607e52-73b9-4bc0-9519-f2bad1a9f084" points="46.41 46.9 71.89 33.19 72.02 33.4 47.42 48.63 46.41 46.9"/><polygon class="93607e52-73b9-4bc0-9519-f2bad1a9f084" points="24.81 39.35 0.14 54.46 0 54.25 23.71 37.67 24.81 39.35"/><polygon class="93607e52-73b9-4bc0-9519-f2bad1a9f084" points="46.25 8.73 40.43 37.07 38.48 36.6 46.25 8.73"/><polygon class="93607e52-73b9-4bc0-9519-f2bad1a9f084" points="78.39 40.12 66.27 66.39 64.47 65.49 78.39 40.12"/><polygon class="93607e52-73b9-4bc0-9519-f2bad1a9f084" points="89.54 130.61 88.8 108.79 90.12 108.72 91.55 130.51 89.54 130.61"/><ellipse class="93607e52-73b9-4bc0-9519-f2bad1a9f084" cx="90.54" cy="130.56" rx="3.44" ry="1.65" transform="translate(-24.03 20.49) rotate(-11.41)"/><polygon class="93607e52-73b9-4bc0-9519-f2bad1a9f084" points="88.17 86.07 86.93 51.69 87.18 51.67 90.17 85.95 88.17 86.07"/><path class="93607e52-73b9-4bc0-9519-f2bad1a9f084" d="M148.17,143.69l-15.39-20v0l-9.56-12.4-7.64-10-4.42-5.76a81,81,0,0,0-6.93-7.88l-68.8-68.8a6.18,6.18,0,0,0-8.78,0L13.47,32a6.18,6.18,0,0,0,0,8.78l68.79,68.8a84.67,84.67,0,0,0,7.86,6.93L95.91,121l9.93,7.64,12.4,9.56,20,15.39Z"/><path class="93607e52-73b9-4bc0-9519-f2bad1a9f084" d="M162.87,177.06l2.73,2.72,8.79-8.79-2.73-2.73h0l-8.78-8.79h0l-8.14-8.13c-.21-.22-.43-.47-.62-.68-1.2-1.22-2.29-2.55-3.39-3.86l-9.34,9.33c1.33,1.09,2.67,2.17,3.89,3.37.21.19.46.4.68.62l8.13,8.14h0l8.78,8.78Z"/><path class="93607e52-73b9-4bc0-9519-f2bad1a9f084" d="M189.23,177.05a6.28,6.28,0,0,0-8.78,0l-3.22-3.22-8.8,8.79,3.23,3.23v0a6.21,6.21,0,0,0,8.79,8.78l8.78-8.78a6.2,6.2,0,0,0,0-8.82Z"/></g></g></svg>