<svg xmlns="http://www.w3.org/2000/svg" viewBox="0 0 494.39 113.97"><defs><style>.\33 5a89d93-4b92-4db6-9407-3fbec2175111{fill:#fff;}</style></defs><title>SXINGR</title><g id="d3541682-7886-46a5-83c8-3351f75fa598" data-name="Layer 2"><g id="ff93709e-e2c7-47a2-9d29-6ce3582bb5ad" data-name="Layer 1"><path class="35a89d93-4b92-4db6-9407-3fbec2175111" d="M0,77.21H12.84v5.3c0,10.27,5.94,19.42,23.12,19.42,16.69,0,18.78-11.08,18.78-16.53C54.74,73,43.82,68.7,32.1,64.21c-14.76-5.78-30.49-11.88-30.49-34C1.61,21.67,6.42,0,34.51,0,61.64,0,66.13,22.63,66.13,30.82V36h-13V30.82C53.13,20.39,47.19,12,34.51,12c-12,0-19.9,7.22-19.9,18.14C14.61,43,25.84,47.51,37.72,52c14.61,5.62,30,11.56,30,33.39C67.74,98.88,60.51,114,36,114,.64,114,0,87,0,82.51Z"/><path class="35a89d93-4b92-4db6-9407-3fbec2175111" d="M109.63,89.09C116.05,60,123,29.54,129.22.8h14.93l19.42,88.29C169.83,60,176.73,29.54,183.15.8H196L171.11,113.17H156.18L136.6,25.36l-19.42,87.81H102.25L77.37.8H90.21Z"/><path class="35a89d93-4b92-4db6-9407-3fbec2175111" d="M214.77.8h13V113.17h-13Z"/><path class="35a89d93-4b92-4db6-9407-3fbec2175111" d="M251.85.8h12.68l42.22,83V.8h12.84V113.17H307.07L264.85,30.5v82.67h-13Z"/><path class="35a89d93-4b92-4db6-9407-3fbec2175111" d="M383.15,54.9h29.54V78.17c0,27.93-16.86,35.8-33.23,35.8-31.62,0-35.8-25.85-35.8-57s4.18-57,35.8-57c17,0,31.62,8.67,31.62,29.38v5.29H398.4V29.38c0-13-8.67-17.34-18.94-17.34C359.07,12,356.67,29.86,356.67,57s2.4,45,22.79,45c11.56,0,20.22-8,20.22-23.76V66.94H383.15Z"/><path class="35a89d93-4b92-4db6-9407-3fbec2175111" d="M431.63.8h25C488.13.8,493,21.83,493,38.52c0,13-3.06,28.74-19.91,35l21.35,39.65H480.1L460,76.09H444.63v37.08h-13Zm13,63.09h12c20.38-.65,23.27-11.08,23.27-25.37s-2.89-25.68-23.27-25.68h-12Z"/></g></g></svg>